<svg width="960" height="86" viewBox="0 0 960 86" fill="none" xmlns="http://www.w3.org/2000/svg">
<g clip-path="url(#clip0_210_15)">
<path d="M0 58L11.5 58.2C23 58.3 46 58.7 68.8 62.8C91.7 67 114.3 75 137.2 74.8C160 74.7 183 66.3 205.8 64C228.7 61.7 251.3 65.3 274.2 68.8C297 72.3 320 75.7 342.8 75.2C365.7 74.7 388.3 70.3 411.2 69.2C434 68 457 70 480 74C503 78 526 84 548.8 85.8C571.7 87.7 594.3 85.3 617.2 81.7C640 78 663 73 685.8 75C708.7 77 731.3 86 754.2 86C777 86 800 77 822.8 70.7C845.7 64.3 868.3 60.7 891.2 60.5C914 60.3 937 63.7 948.5 65.3L960 67V0H948.5C937 0 914 0 891.2 0C868.3 0 845.7 0 822.8 0C800 0 777 0 754.2 0C731.3 0 708.7 0 685.8 0C663 0 640 0 617.2 0C594.3 0 571.7 0 548.8 0C526 0 503 0 480 0C457 0 434 0 411.2 0C388.3 0 365.7 0 342.8 0C320 0 297 0 274.2 0C251.3 0 228.7 0 205.8 0C183 0 160 0 137.2 0C114.3 0 91.7 0 68.8 0C46 0 23 0 11.5 0H0V58Z" fill="#C11DDE"/>
<path d="M0 73L11.5 75.3C23 77.7 46 82.3 68.8 82C91.7 81.7 114.3 76.3 137.2 73.7C160 71 183 71 205.8 71C228.7 71 251.3 71 274.2 71.7C297 72.3 320 73.7 342.8 74.8C365.7 76 388.3 77 411.2 77C434 77 457 76 480 77C503 78 526 81 548.8 77.8C571.7 74.7 594.3 65.3 617.2 65.2C640 65 663 74 685.8 76.8C708.7 79.7 731.3 76.3 754.2 77.2C777 78 800 83 822.8 83.8C845.7 84.7 868.3 81.3 891.2 79.5C914 77.7 937 77.3 948.5 77.2L960 77V0H948.5C937 0 914 0 891.2 0C868.3 0 845.7 0 822.8 0C800 0 777 0 754.2 0C731.3 0 708.7 0 685.8 0C663 0 640 0 617.2 0C594.3 0 571.7 0 548.8 0C526 0 503 0 480 0C457 0 434 0 411.2 0C388.3 0 365.7 0 342.8 0C320 0 297 0 274.2 0C251.3 0 228.7 0 205.8 0C183 0 160 0 137.2 0C114.3 0 91.7 0 68.8 0C46 0 23 0 11.5 0H0V73Z" fill="#B022C9"/>
<path d="M0 53L11.5 51.8C23 50.7 46 48.3 68.8 51.2C91.7 54 114.3 62 137.2 67C160 72 183 74 205.8 74.7C228.7 75.3 251.3 74.7 274.2 69.8C297 65 320 56 342.8 55.7C365.7 55.3 388.3 63.7 411.2 63.5C434 63.3 457 54.7 480 54.8C503 55 526 64 548.8 66C571.7 68 594.3 63 617.2 59C640 55 663 52 685.8 51.3C708.7 50.7 731.3 52.3 754.2 54.8C777 57.3 800 60.7 822.8 64.3C845.7 68 868.3 72 891.2 73C914 74 937 72 948.5 71L960 70V0H948.5C937 0 914 0 891.2 0C868.3 0 845.7 0 822.8 0C800 0 777 0 754.2 0C731.3 0 708.7 0 685.8 0C663 0 640 0 617.2 0C594.3 0 571.7 0 548.8 0C526 0 503 0 480 0C457 0 434 0 411.2 0C388.3 0 365.7 0 342.8 0C320 0 297 0 274.2 0C251.3 0 228.7 0 205.8 0C183 0 160 0 137.2 0C114.3 0 91.7 0 68.8 0C46 0 23 0 11.5 0H0V53Z" fill="#9E25B5"/>
<path d="M0 67L11.5 66.5C23 66 46 65 68.8 61C91.7 57 114.3 50 137.2 51.3C160 52.7 183 62.3 205.8 66.2C228.7 70 251.3 68 274.2 63.2C297 58.3 320 50.7 342.8 51C365.7 51.3 388.3 59.7 411.2 62.3C434 65 457 62 480 59.7C503 57.3 526 55.7 548.8 57.7C571.7 59.7 594.3 65.3 617.2 67.5C640 69.7 663 68.3 685.8 63.2C708.7 58 731.3 49 754.2 44.8C777 40.7 800 41.3 822.8 44.7C845.7 48 868.3 54 891.2 58.8C914 63.7 937 67.3 948.5 69.2L960 71V0H948.5C937 0 914 0 891.2 0C868.3 0 845.7 0 822.8 0C800 0 777 0 754.2 0C731.3 0 708.7 0 685.8 0C663 0 640 0 617.2 0C594.3 0 571.7 0 548.8 0C526 0 503 0 480 0C457 0 434 0 411.2 0C388.3 0 365.7 0 342.8 0C320 0 297 0 274.2 0C251.3 0 228.7 0 205.8 0C183 0 160 0 137.2 0C114.3 0 91.7 0 68.8 0C46 0 23 0 11.5 0H0V67Z" fill="#8E26A1"/>
<path d="M0 61L11.5 58C23 55 46 49 68.8 46.5C91.7 44 114.3 45 137.2 45.5C160 46 183 46 205.8 44.5C228.7 43 251.3 40 274.2 42.3C297 44.7 320 52.3 342.8 52.7C365.7 53 388.3 46 411.2 45.2C434 44.3 457 49.7 480 49.5C503 49.3 526 43.7 548.8 43.2C571.7 42.7 594.3 47.3 617.2 48.2C640 49 663 46 685.8 44.8C708.7 43.7 731.3 44.3 754.2 43.8C777 43.3 800 41.7 822.8 42.5C845.7 43.3 868.3 46.7 891.2 50.2C914 53.7 937 57.3 948.5 59.2L960 61V0H948.5C937 0 914 0 891.2 0C868.3 0 845.7 0 822.8 0C800 0 777 0 754.2 0C731.3 0 708.7 0 685.8 0C663 0 640 0 617.2 0C594.3 0 571.7 0 548.8 0C526 0 503 0 480 0C457 0 434 0 411.2 0C388.3 0 365.7 0 342.8 0C320 0 297 0 274.2 0C251.3 0 228.7 0 205.8 0C183 0 160 0 137.2 0C114.3 0 91.7 0 68.8 0C46 0 23 0 11.5 0H0V61Z" fill="#7D268D"/>
<path d="M0 40L11.5 40.7C23 41.3 46 42.7 68.8 45.7C91.7 48.7 114.3 53.3 137.2 51.3C160 49.3 183 40.7 205.8 38.2C228.7 35.7 251.3 39.3 274.2 40.3C297 41.3 320 39.7 342.8 38.7C365.7 37.7 388.3 37.3 411.2 40.5C434 43.7 457 50.3 480 50.3C503 50.3 526 43.7 548.8 39.5C571.7 35.3 594.3 33.7 617.2 33.2C640 32.7 663 33.3 685.8 34C708.7 34.7 731.3 35.3 754.2 38.5C777 41.7 800 47.3 822.8 46.3C845.7 45.3 868.3 37.7 891.2 33.8C914 30 937 30 948.5 30H960V0H948.5C937 0 914 0 891.2 0C868.3 0 845.7 0 822.8 0C800 0 777 0 754.2 0C731.3 0 708.7 0 685.8 0C663 0 640 0 617.2 0C594.3 0 571.7 0 548.8 0C526 0 503 0 480 0C457 0 434 0 411.2 0C388.3 0 365.7 0 342.8 0C320 0 297 0 274.2 0C251.3 0 228.7 0 205.8 0C183 0 160 0 137.2 0C114.3 0 91.7 0 68.8 0C46 0 23 0 11.5 0H0V40Z" fill="#6D267A"/>
<path d="M0 44L11.5 41.3C23 38.7 46 33.3 68.8 32.2C91.7 31 114.3 34 137.2 36.7C160 39.3 183 41.7 205.8 43.3C228.7 45 251.3 46 274.2 44.5C297 43 320 39 342.8 37.5C365.7 36 388.3 37 411.2 36.5C434 36 457 34 480 34.3C503 34.7 526 37.3 548.8 36.8C571.7 36.3 594.3 32.7 617.2 32.5C640 32.3 663 35.7 685.8 37C708.7 38.3 731.3 37.7 754.2 37C777 36.3 800 35.7 822.8 34.3C845.7 33 868.3 31 891.2 30.3C914 29.7 937 30.3 948.5 30.7L960 31V0H948.5C937 0 914 0 891.2 0C868.3 0 845.7 0 822.8 0C800 0 777 0 754.2 0C731.3 0 708.7 0 685.8 0C663 0 640 0 617.2 0C594.3 0 571.7 0 548.8 0C526 0 503 0 480 0C457 0 434 0 411.2 0C388.3 0 365.7 0 342.8 0C320 0 297 0 274.2 0C251.3 0 228.7 0 205.8 0C183 0 160 0 137.2 0C114.3 0 91.7 0 68.8 0C46 0 23 0 11.5 0H0V44Z" fill="#5D2468"/>
<path d="M0 39L11.5 38.8C23 38.7 46 38.3 68.8 35.8C91.7 33.3 114.3 28.7 137.2 26.8C160 25 183 26 205.8 29C228.7 32 251.3 37 274.2 39.3C297 41.7 320 41.3 342.8 40.8C365.7 40.3 388.3 39.7 411.2 36.5C434 33.3 457 27.7 480 25.2C503 22.7 526 23.3 548.8 24.5C571.7 25.7 594.3 27.3 617.2 29.5C640 31.7 663 34.3 685.8 33.5C708.7 32.7 731.3 28.3 754.2 27.7C777 27 800 30 822.8 29.7C845.7 29.3 868.3 25.7 891.2 25.2C914 24.7 937 27.3 948.5 28.7L960 30V0H948.5C937 0 914 0 891.2 0C868.3 0 845.7 0 822.8 0C800 0 777 0 754.2 0C731.3 0 708.7 0 685.8 0C663 0 640 0 617.2 0C594.3 0 571.7 0 548.8 0C526 0 503 0 480 0C457 0 434 0 411.2 0C388.3 0 365.7 0 342.8 0C320 0 297 0 274.2 0C251.3 0 228.7 0 205.8 0C183 0 160 0 137.2 0C114.3 0 91.7 0 68.8 0C46 0 23 0 11.5 0H0V39Z" fill="#4E2256"/>
<path d="M0 25L11.5 26.7C23 28.3 46 31.7 68.8 32C91.7 32.3 114.3 29.7 137.2 29.5C160 29.3 183 31.7 205.8 32.3C228.7 33 251.3 32 274.2 31.3C297 30.7 320 30.3 342.8 28C365.7 25.7 388.3 21.3 411.2 21.5C434 21.7 457 26.3 480 29.5C503 32.7 526 34.3 548.8 33.8C571.7 33.3 594.3 30.7 617.2 27.7C640 24.7 663 21.3 685.8 21.5C708.7 21.7 731.3 25.3 754.2 26.5C777 27.7 800 26.3 822.8 24.8C845.7 23.3 868.3 21.7 891.2 21.3C914 21 937 22 948.5 22.5L960 23V0H948.5C937 0 914 0 891.2 0C868.3 0 845.7 0 822.8 0C800 0 777 0 754.2 0C731.3 0 708.7 0 685.8 0C663 0 640 0 617.2 0C594.3 0 571.7 0 548.8 0C526 0 503 0 480 0C457 0 434 0 411.2 0C388.3 0 365.7 0 342.8 0C320 0 297 0 274.2 0C251.3 0 228.7 0 205.8 0C183 0 160 0 137.2 0C114.3 0 91.7 0 68.8 0C46 0 23 0 11.5 0H0V25Z" fill="#3F2044"/>
<path d="M0 14L11.5 15C23 16 46 18 68.8 20.3C91.7 22.7 114.3 25.3 137.2 26.5C160 27.7 183 27.3 205.8 26.5C228.7 25.7 251.3 24.3 274.2 23.5C297 22.7 320 22.3 342.8 21.8C365.7 21.3 388.3 20.7 411.2 19.3C434 18 457 16 480 14.8C503 13.7 526 13.3 548.8 14.3C571.7 15.3 594.3 17.7 617.2 18C640 18.3 663 16.7 685.8 16C708.7 15.3 731.3 15.7 754.2 15.5C777 15.3 800 14.7 822.8 14.7C845.7 14.7 868.3 15.3 891.2 15.3C914 15.3 937 14.7 948.5 14.3L960 14V0H948.5C937 0 914 0 891.2 0C868.3 0 845.7 0 822.8 0C800 0 777 0 754.2 0C731.3 0 708.7 0 685.8 0C663 0 640 0 617.2 0C594.3 0 571.7 0 548.8 0C526 0 503 0 480 0C457 0 434 0 411.2 0C388.3 0 365.7 0 342.8 0C320 0 297 0 274.2 0C251.3 0 228.7 0 205.8 0C183 0 160 0 137.2 0C114.3 0 91.7 0 68.8 0C46 0 23 0 11.5 0H0V14Z" fill="#301C33"/>
<path d="M0 17L11.5 17.5C23 18 46 19 68.8 18.3C91.7 17.7 114.3 15.3 137.2 13.8C160 12.3 183 11.7 205.8 11.3C228.7 11 251.3 11 274.2 12.2C297 13.3 320 15.7 342.8 15.3C365.7 15 388.3 12 411.2 10.5C434 9 457 9 480 10.7C503 12.3 526 15.7 548.8 16.8C571.7 18 594.3 17 617.2 15.5C640 14 663 12 685.8 11.5C708.7 11 731.3 12 754.2 11.8C777 11.7 800 10.3 822.8 10.5C845.7 10.7 868.3 12.3 891.2 12.5C914 12.7 937 11.3 948.5 10.7L960 10V0H948.5C937 0 914 0 891.2 0C868.3 0 845.7 0 822.8 0C800 0 777 0 754.2 0C731.3 0 708.7 0 685.8 0C663 0 640 0 617.2 0C594.3 0 571.7 0 548.8 0C526 0 503 0 480 0C457 0 434 0 411.2 0C388.3 0 365.7 0 342.8 0C320 0 297 0 274.2 0C251.3 0 228.7 0 205.8 0C183 0 160 0 137.2 0C114.3 0 91.7 0 68.8 0C46 0 23 0 11.5 0H0V17Z" fill="#221923"/>
<path d="M0 12L11.5 10.8C23 9.7 46 7.3 68.8 6.3C91.7 5.3 114.3 5.7 137.2 5.8C160 6 183 6 205.8 5.8C228.7 5.7 251.3 5.3 274.2 5.5C297 5.7 320 6.3 342.8 6.3C365.7 6.3 388.3 5.7 411.2 6.2C434 6.7 457 8.3 480 8.2C503 8 526 6 548.8 5.3C571.7 4.7 594.3 5.3 617.2 6.3C640 7.3 663 8.7 685.8 8.3C708.7 8 731.3 6 754.2 6C777 6 800 8 822.8 8.2C845.7 8.3 868.3 6.7 891.2 7C914 7.3 937 9.7 948.5 10.8L960 12V0H948.5C937 0 914 0 891.2 0C868.3 0 845.7 0 822.8 0C800 0 777 0 754.2 0C731.3 0 708.7 0 685.8 0C663 0 640 0 617.2 0C594.3 0 571.7 0 548.8 0C526 0 503 0 480 0C457 0 434 0 411.2 0C388.3 0 365.7 0 342.8 0C320 0 297 0 274.2 0C251.3 0 228.7 0 205.8 0C183 0 160 0 137.2 0C114.3 0 91.7 0 68.8 0C46 0 23 0 11.5 0H0V12Z" fill="#141414"/>
</g>
<defs>
<clipPath id="clip0_210_15">
<rect width="960" height="86" fill="white"/>
</clipPath>
</defs>
</svg>
