<svg width="960" height="88" viewBox="0 0 960 88" fill="none" xmlns="http://www.w3.org/2000/svg">
<g clip-path="url(#clip0_208_2)">
<path d="M0 28L11.5 27.8C23 27.7 46 27.3 68.8 23.2C91.7 19 114.3 11 137.2 11.2C160 11.3 183 19.7 205.8 22C228.7 24.3 251.3 20.7 274.2 17.2C297 13.7 320 10.3 342.8 10.8C365.7 11.3 388.3 15.7 411.2 16.8C434 18 457 16 480 12C503 8 526 1.99999 548.8 0.199993C571.7 -1.70001 594.3 0.699999 617.2 4.3C640 8 663 13 685.8 11C708.7 9 731.3 -3.72529e-06 754.2 -3.72529e-06C777 -3.72529e-06 800 9 822.8 15.3C845.7 21.7 868.3 25.3 891.2 25.5C914 25.7 937 22.3 948.5 20.7L960 19V89H948.5C937 89 914 89 891.2 89C868.3 89 845.7 89 822.8 89C800 89 777 89 754.2 89C731.3 89 708.7 89 685.8 89C663 89 640 89 617.2 89C594.3 89 571.7 89 548.8 89C526 89 503 89 480 89C457 89 434 89 411.2 89C388.3 89 365.7 89 342.8 89C320 89 297 89 274.2 89C251.3 89 228.7 89 205.8 89C183 89 160 89 137.2 89C114.3 89 91.7 89 68.8 89C46 89 23 89 11.5 89H0V28Z" fill="#EC407A"/>
<path d="M0 13L11.5 10.7C23 8.29998 46 3.69998 68.8 3.99998C91.7 4.29998 114.3 9.69999 137.2 12.3C160 15 183 15 205.8 15C228.7 15 251.3 15 274.2 14.3C297 13.7 320 12.3 342.8 11.2C365.7 9.99998 388.3 8.99998 411.2 8.99998C434 8.99998 457 9.99998 480 8.99998C503 7.99998 526 4.99998 548.8 8.19998C571.7 11.3 594.3 20.7 617.2 20.8C640 21 663 12 685.8 9.19998C708.7 6.29998 731.3 9.69999 754.2 8.79999C777 7.99999 800 2.99998 822.8 2.19998C845.7 1.29998 868.3 4.69998 891.2 6.49998C914 8.29998 937 8.69999 948.5 8.79999L960 8.99998V89H948.5C937 89 914 89 891.2 89C868.3 89 845.7 89 822.8 89C800 89 777 89 754.2 89C731.3 89 708.7 89 685.8 89C663 89 640 89 617.2 89C594.3 89 571.7 89 548.8 89C526 89 503 89 480 89C457 89 434 89 411.2 89C388.3 89 365.7 89 342.8 89C320 89 297 89 274.2 89C251.3 89 228.7 89 205.8 89C183 89 160 89 137.2 89C114.3 89 91.7 89 68.8 89C46 89 23 89 11.5 89H0V13Z" fill="#D63E70"/>
<path d="M0 33L11.5 34.2C23 35.3 46 37.7 68.8 34.8C91.7 32 114.3 24 137.2 19C160 14 183 12 205.8 11.3C228.7 10.7 251.3 11.3 274.2 16.2C297 21 320 30 342.8 30.3C365.7 30.7 388.3 22.3 411.2 22.5C434 22.7 457 31.3 480 31.2C503 31 526 22 548.8 20C571.7 18 594.3 23 617.2 27C640 31 663 34 685.8 34.7C708.7 35.3 731.3 33.7 754.2 31.2C777 28.7 800 25.3 822.8 21.7C845.7 18 868.3 14 891.2 13C914 12 937 14 948.5 15L960 16V89H948.5C937 89 914 89 891.2 89C868.3 89 845.7 89 822.8 89C800 89 777 89 754.2 89C731.3 89 708.7 89 685.8 89C663 89 640 89 617.2 89C594.3 89 571.7 89 548.8 89C526 89 503 89 480 89C457 89 434 89 411.2 89C388.3 89 365.7 89 342.8 89C320 89 297 89 274.2 89C251.3 89 228.7 89 205.8 89C183 89 160 89 137.2 89C114.3 89 91.7 89 68.8 89C46 89 23 89 11.5 89H0V33Z" fill="#C13B66"/>
<path d="M0 19L11.5 19.5C23 20 46 21 68.8 25C91.7 29 114.3 36 137.2 34.7C160 33.3 183 23.7 205.8 19.8C228.7 16 251.3 18 274.2 22.8C297 27.7 320 35.3 342.8 35C365.7 34.7 388.3 26.3 411.2 23.7C434 21 457 24 480 26.3C503 28.7 526 30.3 548.8 28.3C571.7 26.3 594.3 20.7 617.2 18.5C640 16.3 663 17.7 685.8 22.8C708.7 28 731.3 37 754.2 41.2C777 45.3 800 44.7 822.8 41.3C845.7 38 868.3 32 891.2 27.2C914 22.3 937 18.7 948.5 16.8L960 15V89H948.5C937 89 914 89 891.2 89C868.3 89 845.7 89 822.8 89C800 89 777 89 754.2 89C731.3 89 708.7 89 685.8 89C663 89 640 89 617.2 89C594.3 89 571.7 89 548.8 89C526 89 503 89 480 89C457 89 434 89 411.2 89C388.3 89 365.7 89 342.8 89C320 89 297 89 274.2 89C251.3 89 228.7 89 205.8 89C183 89 160 89 137.2 89C114.3 89 91.7 89 68.8 89C46 89 23 89 11.5 89H0V19Z" fill="#AC385C"/>
<path d="M0 25L11.5 28C23 31 46 37 68.8 39.5C91.7 42 114.3 41 137.2 40.5C160 40 183 40 205.8 41.5C228.7 43 251.3 46 274.2 43.7C297 41.3 320 33.7 342.8 33.3C365.7 33 388.3 40 411.2 40.8C434 41.7 457 36.3 480 36.5C503 36.7 526 42.3 548.8 42.8C571.7 43.3 594.3 38.7 617.2 37.8C640 37 663 40 685.8 41.2C708.7 42.3 731.3 41.7 754.2 42.2C777 42.7 800 44.3 822.8 43.5C845.7 42.7 868.3 39.3 891.2 35.8C914 32.3 937 28.7 948.5 26.8L960 25V89H948.5C937 89 914 89 891.2 89C868.3 89 845.7 89 822.8 89C800 89 777 89 754.2 89C731.3 89 708.7 89 685.8 89C663 89 640 89 617.2 89C594.3 89 571.7 89 548.8 89C526 89 503 89 480 89C457 89 434 89 411.2 89C388.3 89 365.7 89 342.8 89C320 89 297 89 274.2 89C251.3 89 228.7 89 205.8 89C183 89 160 89 137.2 89C114.3 89 91.7 89 68.8 89C46 89 23 89 11.5 89H0V25Z" fill="#973552"/>
<path d="M0 46L11.5 45.3C23 44.7 46 43.3 68.8 40.3C91.7 37.3 114.3 32.7 137.2 34.7C160 36.7 183 45.3 205.8 47.8C228.7 50.3 251.3 46.7 274.2 45.7C297 44.7 320 46.3 342.8 47.3C365.7 48.3 388.3 48.7 411.2 45.5C434 42.3 457 35.7 480 35.7C503 35.7 526 42.3 548.8 46.5C571.7 50.7 594.3 52.3 617.2 52.8C640 53.3 663 52.7 685.8 52C708.7 51.3 731.3 50.7 754.2 47.5C777 44.3 800 38.7 822.8 39.7C845.7 40.7 868.3 48.3 891.2 52.2C914 56 937 56 948.5 56H960V89H948.5C937 89 914 89 891.2 89C868.3 89 845.7 89 822.8 89C800 89 777 89 754.2 89C731.3 89 708.7 89 685.8 89C663 89 640 89 617.2 89C594.3 89 571.7 89 548.8 89C526 89 503 89 480 89C457 89 434 89 411.2 89C388.3 89 365.7 89 342.8 89C320 89 297 89 274.2 89C251.3 89 228.7 89 205.8 89C183 89 160 89 137.2 89C114.3 89 91.7 89 68.8 89C46 89 23 89 11.5 89H0V46Z" fill="#833149"/>
<path d="M0 42L11.5 44.7C23 47.3 46 52.7 68.8 53.8C91.7 55 114.3 52 137.2 49.3C160 46.7 183 44.3 205.8 42.7C228.7 41 251.3 40 274.2 41.5C297 43 320 47 342.8 48.5C365.7 50 388.3 49 411.2 49.5C434 50 457 52 480 51.7C503 51.3 526 48.7 548.8 49.2C571.7 49.7 594.3 53.3 617.2 53.5C640 53.7 663 50.3 685.8 49C708.7 47.7 731.3 48.3 754.2 49C777 49.7 800 50.3 822.8 51.7C845.7 53 868.3 55 891.2 55.7C914 56.3 937 55.7 948.5 55.3L960 55V89H948.5C937 89 914 89 891.2 89C868.3 89 845.7 89 822.8 89C800 89 777 89 754.2 89C731.3 89 708.7 89 685.8 89C663 89 640 89 617.2 89C594.3 89 571.7 89 548.8 89C526 89 503 89 480 89C457 89 434 89 411.2 89C388.3 89 365.7 89 342.8 89C320 89 297 89 274.2 89C251.3 89 228.7 89 205.8 89C183 89 160 89 137.2 89C114.3 89 91.7 89 68.8 89C46 89 23 89 11.5 89H0V42Z" fill="#6F2D3F"/>
<path d="M0 47L11.5 47.2C23 47.3 46 47.7 68.8 50.2C91.7 52.7 114.3 57.3 137.2 59.2C160 61 183 60 205.8 57C228.7 54 251.3 49 274.2 46.7C297 44.3 320 44.7 342.8 45.2C365.7 45.7 388.3 46.3 411.2 49.5C434 52.7 457 58.3 480 60.8C503 63.3 526 62.7 548.8 61.5C571.7 60.3 594.3 58.7 617.2 56.5C640 54.3 663 51.7 685.8 52.5C708.7 53.3 731.3 57.7 754.2 58.3C777 59 800 56 822.8 56.3C845.7 56.7 868.3 60.3 891.2 60.8C914 61.3 937 58.7 948.5 57.3L960 56V89H948.5C937 89 914 89 891.2 89C868.3 89 845.7 89 822.8 89C800 89 777 89 754.2 89C731.3 89 708.7 89 685.8 89C663 89 640 89 617.2 89C594.3 89 571.7 89 548.8 89C526 89 503 89 480 89C457 89 434 89 411.2 89C388.3 89 365.7 89 342.8 89C320 89 297 89 274.2 89C251.3 89 228.7 89 205.8 89C183 89 160 89 137.2 89C114.3 89 91.7 89 68.8 89C46 89 23 89 11.5 89H0V47Z" fill="#5C2936"/>
<path d="M0 61L11.5 59.3C23 57.7 46 54.3 68.8 54C91.7 53.7 114.3 56.3 137.2 56.5C160 56.7 183 54.3 205.8 53.7C228.7 53 251.3 54 274.2 54.7C297 55.3 320 55.7 342.8 58C365.7 60.3 388.3 64.7 411.2 64.5C434 64.3 457 59.7 480 56.5C503 53.3 526 51.7 548.8 52.2C571.7 52.7 594.3 55.3 617.2 58.3C640 61.3 663 64.7 685.8 64.5C708.7 64.3 731.3 60.7 754.2 59.5C777 58.3 800 59.7 822.8 61.2C845.7 62.7 868.3 64.3 891.2 64.7C914 65 937 64 948.5 63.5L960 63V89H948.5C937 89 914 89 891.2 89C868.3 89 845.7 89 822.8 89C800 89 777 89 754.2 89C731.3 89 708.7 89 685.8 89C663 89 640 89 617.2 89C594.3 89 571.7 89 548.8 89C526 89 503 89 480 89C457 89 434 89 411.2 89C388.3 89 365.7 89 342.8 89C320 89 297 89 274.2 89C251.3 89 228.7 89 205.8 89C183 89 160 89 137.2 89C114.3 89 91.7 89 68.8 89C46 89 23 89 11.5 89H0V61Z" fill="#49242D"/>
<path d="M0 72L11.5 71C23 70 46 68 68.8 65.7C91.7 63.3 114.3 60.7 137.2 59.5C160 58.3 183 58.7 205.8 59.5C228.7 60.3 251.3 61.7 274.2 62.5C297 63.3 320 63.7 342.8 64.2C365.7 64.7 388.3 65.3 411.2 66.7C434 68 457 70 480 71.2C503 72.3 526 72.7 548.8 71.7C571.7 70.7 594.3 68.3 617.2 68C640 67.7 663 69.3 685.8 70C708.7 70.7 731.3 70.3 754.2 70.5C777 70.7 800 71.3 822.8 71.3C845.7 71.3 868.3 70.7 891.2 70.7C914 70.7 937 71.3 948.5 71.7L960 72V89H948.5C937 89 914 89 891.2 89C868.3 89 845.7 89 822.8 89C800 89 777 89 754.2 89C731.3 89 708.7 89 685.8 89C663 89 640 89 617.2 89C594.3 89 571.7 89 548.8 89C526 89 503 89 480 89C457 89 434 89 411.2 89C388.3 89 365.7 89 342.8 89C320 89 297 89 274.2 89C251.3 89 228.7 89 205.8 89C183 89 160 89 137.2 89C114.3 89 91.7 89 68.8 89C46 89 23 89 11.5 89H0V72Z" fill="#371F25"/>
<path d="M0 69L11.5 68.5C23 68 46 67 68.8 67.7C91.7 68.3 114.3 70.7 137.2 72.2C160 73.7 183 74.3 205.8 74.7C228.7 75 251.3 75 274.2 73.8C297 72.7 320 70.3 342.8 70.7C365.7 71 388.3 74 411.2 75.5C434 77 457 77 480 75.3C503 73.7 526 70.3 548.8 69.2C571.7 68 594.3 69 617.2 70.5C640 72 663 74 685.8 74.5C708.7 75 731.3 74 754.2 74.2C777 74.3 800 75.7 822.8 75.5C845.7 75.3 868.3 73.7 891.2 73.5C914 73.3 937 74.7 948.5 75.3L960 76V89H948.5C937 89 914 89 891.2 89C868.3 89 845.7 89 822.8 89C800 89 777 89 754.2 89C731.3 89 708.7 89 685.8 89C663 89 640 89 617.2 89C594.3 89 571.7 89 548.8 89C526 89 503 89 480 89C457 89 434 89 411.2 89C388.3 89 365.7 89 342.8 89C320 89 297 89 274.2 89C251.3 89 228.7 89 205.8 89C183 89 160 89 137.2 89C114.3 89 91.7 89 68.8 89C46 89 23 89 11.5 89H0V69Z" fill="#261A1C"/>
<path d="M0 74L11.5 75.2C23 76.3 46 78.7 68.8 79.7C91.7 80.7 114.3 80.3 137.2 80.2C160 80 183 80 205.8 80.2C228.7 80.3 251.3 80.7 274.2 80.5C297 80.3 320 79.7 342.8 79.7C365.7 79.7 388.3 80.3 411.2 79.8C434 79.3 457 77.7 480 77.8C503 78 526 80 548.8 80.7C571.7 81.3 594.3 80.7 617.2 79.7C640 78.7 663 77.3 685.8 77.7C708.7 78 731.3 80 754.2 80C777 80 800 78 822.8 77.8C845.7 77.7 868.3 79.3 891.2 79C914 78.7 937 76.3 948.5 75.2L960 74V89H948.5C937 89 914 89 891.2 89C868.3 89 845.7 89 822.8 89C800 89 777 89 754.2 89C731.3 89 708.7 89 685.8 89C663 89 640 89 617.2 89C594.3 89 571.7 89 548.8 89C526 89 503 89 480 89C457 89 434 89 411.2 89C388.3 89 365.7 89 342.8 89C320 89 297 89 274.2 89C251.3 89 228.7 89 205.8 89C183 89 160 89 137.2 89C114.3 89 91.7 89 68.8 89C46 89 23 89 11.5 89H0V74Z" fill="#141414"/>
</g>
<defs>
<clipPath id="clip0_208_2">
<rect width="960" height="88" fill="white"/>
</clipPath>
</defs>
</svg>
